<svg>
   <symbol id="basket" width="30" height="30" viewBox="0 0 33 33"  xmlns="http://www.w3.org/2000/svg">
        <path d="M21 8.99991H19.58L15.868 2.50391L14.132 3.49591L17.277 8.99991H6.72302L9.86902 3.49591L8.13202 2.50391L4.42002 8.99991H3.00002C2.84631 9.00008 2.69472 9.03564 2.55697 9.10384C2.41923 9.17204 2.29904 9.27104 2.20572 9.39318C2.1124 9.51531 2.04846 9.65729 2.01886 9.80812C1.98926 9.95894 1.99479 10.1146 2.03502 10.2629L4.83402 20.5269C4.95037 20.9497 5.20213 21.3227 5.55072 21.5887C5.89931 21.8548 6.3255 21.9992 6.76402 21.9999H17.237C18.135 21.9999 18.929 21.3949 19.167 20.5249L21.966 10.2619C22.0067 10.1135 22.0126 9.95771 21.9831 9.80668C21.9536 9.65565 21.8896 9.51348 21.7961 9.39129C21.7025 9.2691 21.582 9.17019 21.4439 9.1023C21.3058 9.0344 21.1539 8.99936 21 8.99991ZM17.236 19.9999V20.9999V19.9999H6.76402L4.31002 10.9999H19.69L17.236 19.9999Z"/>
        <path d="M9 13H11V18H9V13ZM13 13H15V18H13V13Z"/>
    </symbol>

    <symbol id="searchIcon" width="24" height="24" viewBox="0 0 24 24" xmlns="http://www.w3.org/2000/svg">
        <path d="M10 18C11.775 17.9996 13.4988 17.4054 14.897 16.312L19.293 20.708L20.707 19.294L16.311 14.898C17.405 13.4997 17.9996 11.7754 18 10C18 5.589 14.411 2 10 2C5.589 2 2 5.589 2 10C2 14.411 5.589 18 10 18ZM10 4C13.309 4 16 6.691 16 10C16 13.309 13.309 16 10 16C6.691 16 4 13.309 4 10C4 6.691 6.691 4 10 4Z"/>
        <path d="M11.412 8.58596C11.791 8.96596 12 9.46796 12 9.99996H14C14.0009 9.47439 13.8976 8.95386 13.6961 8.46845C13.4946 7.98304 13.1989 7.54239 12.826 7.17196C11.312 5.65996 8.68701 5.65996 7.17401 7.17196L8.58601 8.58796C9.34601 7.82996 10.656 7.83196 11.412 8.58596Z"/>
    </symbol>
    
    <symbol id="ellipse" width="40" height="20" viewBox="0 0 33 21" xmlns="http://www.w3.org/2000/svg">
        <path d="M33 16.5C36.5 23 20.1127 14.5 11 14.5C1.8873 14.5 0 25.6127 0 16.5C0 7.3873 7.3873 0 16.5 0C25.6127 0 10 6.5 33 16.5Z"/>
    </symbol>

    <symbol id="infoImg1" viewBox="0 0 30 30" xmlns="http://www.w3.org/2000/svg">
        <path d="M25.5 8.00004C25.5121 7.91296 25.5121 7.82462 25.5 7.73754V7.63754C25.4785 7.56777 25.4492 7.50067 25.4125 7.43754C25.3963 7.40154 25.3752 7.3679 25.35 7.33754L25.225 7.17504L25.125 7.10004L24.975 6.98754L13.725 0.737537C13.535 0.627826 13.3194 0.570068 13.1 0.570068C12.8806 0.570068 12.665 0.627826 12.475 0.737537L1.225 6.98754L1.1125 7.07504L0.975 7.17504C0.938686 7.21591 0.909146 7.26233 0.8875 7.31254C0.847507 7.34841 0.813718 7.39064 0.7875 7.43754C0.755044 7.49238 0.729834 7.55121 0.7125 7.61254C0.705507 7.65391 0.705507 7.69616 0.7125 7.73754C0.626557 7.81164 0.554587 7.90055 0.5 8.00004V18C0.501622 18.2228 0.562735 18.441 0.677014 18.6322C0.791293 18.8234 0.954588 18.9806 1.15 19.0875L12.4 25.3375C12.4517 25.3677 12.5061 25.3928 12.5625 25.4125H12.6875C12.8929 25.4624 13.1071 25.4624 13.3125 25.4125H13.4375L13.6125 25.3375L24.8625 19.0875C25.0556 18.979 25.2164 18.8211 25.3284 18.63C25.4404 18.4389 25.4996 18.2215 25.5 18V8.00004ZM13 12.8375L4.325 8.00004L7.775 6.10004L16.3125 10.975L13 12.8375ZM13 3.18754L21.675 8.00004L18.875 9.56254L10.3375 4.67504L13 3.18754ZM3 10.125L11.75 15.025V22.125L3 17.2625V10.125ZM14.25 22.125V15.025L18 12.925V16.75L20.5 15.5V11.525L23 10.1375V17.2625L14.25 22.125Z"/>
    </symbol>

    <symbol id="infoImg2" viewBox="0 0 30 30" xmlns="http://www.w3.org/2000/svg">
        <path d="M15 27.5C16.3807 27.5 17.5 26.3807 17.5 25C17.5 23.6193 16.3807 22.5 15 22.5C13.6193 22.5 12.5 23.6193 12.5 25C12.5 26.3807 13.6193 27.5 15 27.5Z"/>
        <path d="M15 7.5C16.3807 7.5 17.5 6.38071 17.5 5C17.5 3.61929 16.3807 2.5 15 2.5C13.6193 2.5 12.5 3.61929 12.5 5C12.5 6.38071 13.6193 7.5 15 7.5Z"/>
        <path d="M7.92871 24.5713C9.30942 24.5713 10.4287 23.452 10.4287 22.0713C10.4287 20.6906 9.30942 19.5713 7.92871 19.5713C6.548 19.5713 5.42871 20.6906 5.42871 22.0713C5.42871 23.452 6.548 24.5713 7.92871 24.5713Z"/>
        <path d="M22.0713 10.4287C23.452 10.4287 24.5713 9.30942 24.5713 7.92871C24.5713 6.548 23.452 5.42871 22.0713 5.42871C20.6906 5.42871 19.5713 6.548 19.5713 7.92871C19.5713 9.30942 20.6906 10.4287 22.0713 10.4287Z"/>
        <path d="M5.00003 17.5013C6.38143 17.5013 7.50128 16.3814 7.50128 15C7.50128 13.6186 6.38143 12.4988 5.00003 12.4988C3.61863 12.4988 2.49878 13.6186 2.49878 15C2.49878 16.3814 3.61863 17.5013 5.00003 17.5013Z"/>
        <path d="M25 17.5C26.3807 17.5 27.5 16.3807 27.5 15C27.5 13.6193 26.3807 12.5 25 12.5C23.6193 12.5 22.5 13.6193 22.5 15C22.5 16.3807 23.6193 17.5 25 17.5Z"/>
        <path d="M7.92871 10.4301C9.30942 10.4301 10.4287 9.31077 10.4287 7.93005C10.4287 6.54934 9.30942 5.43005 7.92871 5.43005C6.548 5.43005 5.42871 6.54934 5.42871 7.93005C5.42871 9.31077 6.548 10.4301 7.92871 10.4301Z"/>
        <path d="M22.0713 24.5725C23.452 24.5725 24.5713 23.4532 24.5713 22.0725C24.5713 20.6918 23.452 19.5725 22.0713 19.5725C20.6906 19.5725 19.5713 20.6918 19.5713 22.0725C19.5713 23.4532 20.6906 24.5725 22.0713 24.5725Z"/>
    </symbol>

    <symbol id="infoImg3" width="25" height="25" viewBox="0 0 30 30" xmlns="http://www.w3.org/2000/svg">
        <path d="M15 12.5C16.4388 12.5 17.5 11.44 17.5 10C17.5 8.56 16.4388 7.5 15 7.5C13.5625 7.5 12.5 8.56 12.5 10C12.5 11.44 13.5625 12.5 15 12.5ZM15 13.75C12.2387 13.75 10 15.765 10 18.25V18.7325H20V18.25C20 15.765 17.7613 13.75 15 13.75Z"/>
        <path d="M23.75 2.5H6.25C4.87125 2.5 3.75 3.62125 3.75 5V21.25C3.75 22.6287 4.87125 23.75 6.25 23.75H11.25L15 27.5L18.75 23.75H23.75C25.1287 23.75 26.25 22.6287 26.25 21.25V5C26.25 3.62125 25.1287 2.5 23.75 2.5ZM17.5 21.25L15 23.75L12.5 21.25H6.25V5H23.75L23.7525 21.25H17.5Z"/>
    </symbol>

    <symbol id="infoImg4" width="25" height="25" viewBox="0 0 30 30" xmlns="http://www.w3.org/2000/svg">
        <path d="M15 18.75C17.0711 18.75 18.75 17.0711 18.75 15C18.75 12.9289 17.0711 11.25 15 11.25C12.9289 11.25 11.25 12.9289 11.25 15C11.25 17.0711 12.9289 18.75 15 18.75Z"/>
        <path d="M16.25 5.08625V2.5H13.75V5.08625C11.5502 5.36669 9.50582 6.36967 7.93775 7.93775C6.36967 9.50582 5.36669 11.5502 5.08625 13.75H2.5V16.25H5.08625C5.36649 18.4499 6.3694 20.4944 7.93751 22.0625C9.50563 23.6306 11.5501 24.6335 13.75 24.9137V27.5H16.25V24.9137C18.4499 24.6335 20.4944 23.6306 22.0625 22.0625C23.6306 20.4944 24.6335 18.4499 24.9137 16.25H27.5V13.75H24.9137C24.6333 11.5502 23.6303 9.50582 22.0623 7.93775C20.4942 6.36967 18.4498 5.36669 16.25 5.08625ZM15 22.5C10.8638 22.5 7.5 19.1362 7.5 15C7.5 10.8638 10.8638 7.5 15 7.5C19.1362 7.5 22.5 10.8638 22.5 15C22.5 19.1362 19.1362 22.5 15 22.5Z"/>
    </symbol>

    <symbol id="plus" width="20" height="20" viewBox="0 0 20 20" xmlns="http://www.w3.org/2000/svg">
        <path d="M20.1343 10.281C20.1343 9.5119 19.5108 8.88839 18.7416 8.88839H11.7784V1.9251C11.7784 1.15595 11.1548 0.53244 10.3857 0.53244C9.61655 0.53244 8.99304 1.15595 8.99304 1.9251V8.88839H2.02974C1.2606 8.88839 0.637085 9.5119 0.637085 10.281C0.637085 11.0502 1.2606 11.6737 2.02974 11.6737H8.99304V18.637C8.99304 19.4061 9.61655 20.0297 10.3857 20.0297C11.1548 20.0297 11.7784 19.4061 11.7784 18.637V11.6737H18.7416C19.5108 11.6737 20.1343 11.0502 20.1343 10.281Z"/>
    </symbol>

    <symbol id="leftArrow" viewBox="0 0 10 12"  xmlns="http://www.w3.org/2000/svg">
        <path d="M6.29303 11.707L0.586032 5.99997L6.29303 0.292969L7.70703 1.70697L3.41403 5.99997L7.70703 10.293L6.29303 11.707Z"/>
    </symbol>

    <symbol id="rightArrow" viewBox="0 0 6 12" xmlns="http://www.w3.org/2000/svg">
        <path d="M1.70697 11.707L7.41397 5.99997L1.70697 0.292969L0.292969 1.70697L4.58597 5.99997L0.292969 10.293L1.70697 11.707Z"/>
    </symbol>

    <symbol id="closeIcon" width="20" height="20" viewBox="0 0 23 26" xmlns="http://www.w3.org/2000/svg">
        <path d="M19.3231 0.745361L11.1122 9.93636L2.90329 0.745361L0.166992 3.80903L8.3759 13L0.166992 22.191L2.90329 25.2547L11.1122 16.0637L19.3231 25.2547L22.0594 22.191L13.8504 13L22.0594 3.80903L19.3231 0.745361Z"/>
    </symbol>
</svg>